<svg xmlns="http://www.w3.org/2000/svg" viewBox="0 0 38.54 11.28"><defs><style>.cls-1{fill:#8f2447;}</style></defs><title>Лого МПК Кузминки</title><g id="Слой_2" data-name="Слой 2"><g id="Слой_1-2" data-name="Слой 1"><path class="cls-1" d="M17.63,2.92l.37-.3a.13.13,0,0,0,.06-.09s0,0-.09,0H16.31c-.1,0-.14.08-.15.2l-.91,4.26h0l-1-4.26c0-.12-.07-.2-.2-.2H12.46c-.05,0-.1,0-.1,0a.12.12,0,0,0,.07.09l.37.3a.11.11,0,0,1,.06.1v6a.14.14,0,0,1-.06.1l-.37.29a.17.17,0,0,0-.07.09s.05.05.1.05h1.71c.07,0,.1,0,.1-.05a.14.14,0,0,0-.06-.09l-.46-.29a.14.14,0,0,1-.06-.1V4.72h0l1.15,4.78c0,.06,0,.1.07.1h.31a.11.11,0,0,0,.12-.09l1.07-4.78h0V9.06a.14.14,0,0,1-.06.1L16,9.45a.13.13,0,0,0-.07.09s0,.05.1.05h2c.05,0,.09,0,.09-.05A.2.2,0,0,0,18,9.45l-.37-.29a.11.11,0,0,1-.06-.1V3A.1.1,0,0,1,17.63,2.92Z"/><path class="cls-1" d="M28.1,2.92l.46-.3a.11.11,0,0,0,.06-.09s0,0-.09,0h-2c-.05,0-.09,0-.09,0a.13.13,0,0,0,.06.09l.38.3a.11.11,0,0,1,.06.1V5.69H25.5V3a.1.1,0,0,1,.07-.1l.37-.3s.07-.06.07-.09-.05,0-.1,0h-2c-.07,0-.1,0-.1,0a.1.1,0,0,0,.07.09l.45.3a.1.1,0,0,1,.06.1v6a.11.11,0,0,1-.06.1l-.45.29a.13.13,0,0,0-.07.09s0,.05.1.05h2c.05,0,.1,0,.1-.05s0-.06-.07-.09l-.37-.29a.13.13,0,0,1-.07-.1V6.38h1.44V9.06a.14.14,0,0,1-.06.1l-.38.29a.2.2,0,0,0-.06.09s0,.05.09.05h2c.06,0,.09,0,.09-.05a.14.14,0,0,0-.06-.09l-.46-.29a.14.14,0,0,1-.06-.1V3A.11.11,0,0,1,28.1,2.92Z"/><path class="cls-1" d="M33.76,9.43l-.44-.35a.77.77,0,0,1-.17-.25L31.59,5.34c.3-.35.29-1,.44-1.59.18-.74.44-.86.56-.86s.12,0,.12.11-.19.17-.19.51A.51.51,0,0,0,33.1,4c.37,0,.65-.25.65-.8a.82.82,0,0,0-.92-.8c-.5,0-1,.17-1.25,1.15s-.15,1.6-.69,1.71V2.56c0-.05,0-.08-.08-.08H29.3c-.06,0-.09,0-.09,0a.09.09,0,0,0,.06.09l.46.3a.11.11,0,0,1,.06.1v6a.14.14,0,0,1-.06.1l-.46.29a.11.11,0,0,0-.06.09s0,.05.09.05h2s.09,0,.09-.05a.2.2,0,0,0-.06-.09L31,9.16a.11.11,0,0,1-.06-.1V6.19L32.21,9a.28.28,0,0,1,0,.22L32,9.44a.28.28,0,0,0-.06.1s0,.05.06.05h1.74c.05,0,.08,0,.08-.06A.11.11,0,0,0,33.76,9.43Z"/><path class="cls-1" d="M22.72,2.92l.45-.3a.09.09,0,0,0,.06-.09s0,0-.09,0H21.82a.2.2,0,0,0-.18.1l-1.41,4.1V3a.1.1,0,0,1,.07-.1l.37-.3s.07-.06.07-.09,0,0-.1,0h-2c-.06,0-.1,0-.1,0a.1.1,0,0,0,.07.09l.45.3a.1.1,0,0,1,.06.1V9.34a.22.22,0,0,0,.21.25h.51c.1,0,.18-.15.18-.15l1.52-4.51V9.06a.11.11,0,0,1-.06.1l-.38.29a.2.2,0,0,0-.06.09s.05.05.1.05h2c.06,0,.09,0,.09-.05a.11.11,0,0,0-.06-.09l-.45-.29a.13.13,0,0,1-.07-.1V3A.1.1,0,0,1,22.72,2.92Z"/><path class="cls-1" d="M5.32,9.53s0-.1-.11-.15L4.68,9a.61.61,0,0,1-.21-.3L3.11,4.14l1.21-3A1.19,1.19,0,0,1,4.66.65L5.2.22c.06,0,.12-.1.12-.16S5.28,0,5.21,0H2.92c-.06,0-.11,0-.11.06s0,.09.11.14l.49.34A.26.26,0,0,1,3.5.88L2,4.64h0V.92A.42.42,0,0,1,2.07.56L2.56.2A.17.17,0,0,0,2.65.06.08.08,0,0,0,2.57,0H.08A.08.08,0,0,0,0,.06.17.17,0,0,0,.11.2L.58.56A.37.37,0,0,1,.72.92V8.67A.41.41,0,0,1,.58,9l-.49.36S0,9.48,0,9.53a.08.08,0,0,0,.08.06H2.57a.08.08,0,0,0,.08-.06.2.2,0,0,0-.09-.14L2.07,9a.41.41,0,0,1-.14-.36V7l.55-1.36h0L3.39,8.6a.29.29,0,0,1-.05.34l-.4.45c-.07.06-.13.1-.13.14s0,.06.09.06H5.24C5.31,9.59,5.32,9.58,5.32,9.53Z"/><path class="cls-1" d="M8.64,2.48H7s-.09,0-.09,0a.15.15,0,0,0,.06.1L7.28,3a.25.25,0,0,1,.08.25L6.91,6.91h0L6.31,3.2A.41.41,0,0,1,6.37,3l.3-.32a.16.16,0,0,0,0-.1s0,0-.09,0H4.88c-.06,0-.09,0-.09,0a.18.18,0,0,0,.06.1L5.2,3a.59.59,0,0,1,.11.19l.94,5.71A8.58,8.58,0,0,1,6.36,10c0,.45-.14.73-.5.73s-.52-.31-.74-.66A.14.14,0,0,0,5,10s-.06,0-.06.09A1.22,1.22,0,0,0,6,11.28c.49,0,.93-.36,1.06-1.19L8.15,3.17a.37.37,0,0,1,.12-.23l.4-.31a.12.12,0,0,0,.06-.1S8.68,2.48,8.64,2.48Z"/><path class="cls-1" d="M38.48,9.45,38,9.16a.11.11,0,0,1-.06-.1V3a.1.1,0,0,1,.06-.1l.46-.3a.11.11,0,0,0,.06-.09s0,0-.09,0H37.13a.2.2,0,0,0-.18.1l-1.41,4.1V3a.11.11,0,0,1,.06-.1l.38-.3A.13.13,0,0,0,36,2.53s0,0-.09,0H34c-.06,0-.09,0-.09,0a.11.11,0,0,0,.06.09l.46.3a.1.1,0,0,1,.06.1V9.34a.22.22,0,0,0,.21.25h.51c.1,0,.18-.15.18-.15l1.52-4.51V9.06a.14.14,0,0,1-.06.1l-.38.29a.2.2,0,0,0-.06.09s0,.05.09.05h2c.06,0,.09,0,.09-.05A.14.14,0,0,0,38.48,9.45Z"/><path class="cls-1" d="M10.7,5.76A1.82,1.82,0,0,0,11.93,4a1.53,1.53,0,0,0-1.59-1.53A1.48,1.48,0,0,0,8.82,3.87a.64.64,0,0,0,.62.71A.51.51,0,0,0,10,4c0-.49-.39-.35-.39-.68a.54.54,0,0,1,.59-.46c.37,0,.7.44.7,1,0,1-.41,1.62-1.24,1.79-.06,0-.09,0-.09.08s.05.07.13.09a1.57,1.57,0,0,1,1.24,1.69C10.91,8.41,10.48,9,10,9a.94.94,0,0,1-.91-.86A.17.17,0,0,0,8.93,8a.11.11,0,0,0-.1.13,1.41,1.41,0,0,0,1.41,1.42,1.67,1.67,0,0,0,1.59-1,2.63,2.63,0,0,0,.18-1A1.78,1.78,0,0,0,10.7,5.76Z"/></g></g></svg>